<svg width="18" height="20" viewBox="0 0 18 20" fill="none" xmlns="http://www.w3.org/2000/svg" class="icon icon-account">
<path d="M8.78906 0C5.88129 0 3.51562 2.36566 3.51562 5.27344C3.51562 8.18121 5.88129 10.5469 8.78906 10.5469C11.6968 10.5469 14.0625 8.18121 14.0625 5.27344C14.0625 2.36566 11.6968 0 8.78906 0ZM8.78906 9.375C6.52746 9.375 4.6875 7.53504 4.6875 5.27344C4.6875 3.01184 6.52746 1.17188 8.78906 1.17188C11.0507 1.17188 12.8906 3.01184 12.8906 5.27344C12.8906 7.53504 11.0507 9.375 8.78906 9.375ZM15.3502 13.992C13.9065 12.5261 11.9925 11.7188 9.96094 11.7188H7.61719C5.58563 11.7188 3.67164 12.5261 2.22789 13.992C0.791211 15.4507 0 17.3763 0 19.4141C0 19.7377 0.262344 20 0.585938 20H16.9922C17.3158 20 17.5781 19.7377 17.5781 19.4141C17.5781 17.3763 16.7869 15.4507 15.3502 13.992ZM1.19766 18.8281C1.49121 15.5045 4.25824 12.8906 7.61719 12.8906H9.96094C13.3199 12.8906 16.0869 15.5045 16.3805 18.8281H1.19766Z" fill="currentColor"/>
</svg>
