<svg width="17" height="17" viewBox="0 0 17 17" fill="none" xmlns="http://www.w3.org/2000/svg" class="icon icon-search">
<path d="M7.49606 0.00314957C5.50901 0.00648077 3.60429 0.797312 2.19923 2.20238C0.794162 3.60744 0.0033312 5.51216 0 7.49921C0.00166071 9.48794 0.791555 11.3949 2.19662 12.8024C3.60168 14.2098 5.50734 15.0029 7.49606 15.0079C9.25984 15.0079 10.885 14.3874 12.1701 13.3606L15.2913 16.4819C15.4495 16.6289 15.6584 16.7089 15.8743 16.7052C16.0902 16.7014 16.2962 16.6141 16.4491 16.4616C16.602 16.3091 16.6898 16.1034 16.6942 15.8875C16.6985 15.6716 16.619 15.4625 16.4724 15.3039L13.3512 12.1795C14.4172 10.8537 14.9984 9.20358 14.9984 7.50236C14.9984 3.37008 11.6283 0.00314957 7.49606 0.00314957ZM7.49606 1.67244C10.7276 1.67244 13.3291 4.27087 13.3291 7.49921C13.3291 10.7276 10.7276 13.3417 7.49606 13.3417C4.26457 13.3417 1.66614 10.737 1.66614 7.50551C1.66614 4.27402 4.26457 1.67244 7.49606 1.67244Z" fill="currentColor"/>
</svg>
