<svg width="12" height="13" viewBox="0 0 12 13" fill="none" class="icon icon-play" xmlns="http://www.w3.org/2000/svg">
    <path fill-rule="evenodd" clip-rule="evenodd" d="M0.3 0.982109C0.32046 0.810094 0.380765 0.645224 0.476123 0.500605C0.571481 0.355986 0.699261 0.235606 0.849306 0.149037C0.99935 0.0624667 1.16752 0.0120935 1.34045 0.00192169C1.51338 -0.00825011 1.6863 0.0220599 1.84545 0.0904422C2.65 0.434382 4.45303 1.25181 6.74091 2.57226C9.02955 3.89347 10.6394 5.04726 11.3386 5.57075C11.9356 6.01847 11.9371 6.90635 11.3394 7.35559C10.647 7.87605 9.05682 9.01468 6.74091 10.3526C4.42273 11.6904 2.64091 12.498 1.84394 12.8374C1.15758 13.1306 0.389394 12.6859 0.3 11.9457C0.195455 11.0806 0 9.1162 0 6.46317C0 3.81165 0.194697 1.84802 0.3 0.982109Z" fill="#CD1719"/>
</svg>
